<svg id="svg" version="1.1" xmlns="http://www.w3.org/2000/svg" xmlns:xlink="http://www.w3.org/1999/xlink" width="400" height="400" viewBox="0, 0, 400,400"><g id="svgg"><path id="path0" d="M93.939 57.152 C 91.804 58.507,90.660 59.991,90.048 62.200 C 89.366 64.661,89.417 328.093,90.100 330.694 C 90.828 333.468,93.243 335.778,96.049 336.385 C 97.608 336.722,106.620 336.816,128.800 336.725 L 159.400 336.600 161.400 335.600 C 162.733 334.933,163.800 334.000,164.600 332.800 L 165.800 331.000 166.000 280.800 L 166.200 230.600 200.575 230.498 C 227.811 230.417,235.016 230.500,235.269 230.898 C 235.444 231.174,235.591 253.473,235.594 280.450 C 235.597 307.428,235.713 330.063,235.850 330.751 C 236.265 332.823,238.936 335.491,241.300 336.193 C 243.975 336.987,302.406 337.112,305.512 336.330 C 308.049 335.691,310.961 332.815,311.329 330.585 C 311.664 328.558,311.684 63.722,311.350 62.049 C 311.023 60.417,308.286 57.330,306.505 56.586 C 305.312 56.088,300.363 56.002,273.451 56.011 L 241.800 56.023 240.031 56.927 C 239.058 57.425,237.708 58.516,237.031 59.353 L 235.800 60.874 235.594 111.137 C 235.481 138.782,235.346 161.446,235.294 161.502 C 235.242 161.558,219.675 161.558,200.700 161.502 L 166.200 161.400 166.000 111.587 L 165.800 61.774 164.374 59.787 C 163.590 58.694,162.240 57.398,161.374 56.907 L 159.800 56.013 127.778 56.007 L 95.757 56.000 93.939 57.152 M149.489 71.923 C 149.870 72.165,150.003 83.299,150.089 122.017 C 150.213 177.696,149.954 172.985,153.036 175.525 C 155.568 177.613,155.282 177.600,200.931 177.598 C 250.030 177.595,247.137 177.851,250.048 173.261 L 251.200 171.443 251.200 121.764 C 251.200 76.833,251.260 72.062,251.833 71.843 C 252.659 71.526,294.541 71.526,295.367 71.843 C 295.942 72.063,296.000 83.414,296.000 196.443 L 296.000 320.800 273.600 320.800 L 251.200 320.800 251.200 270.678 L 251.200 220.557 250.048 218.739 C 247.137 214.150,249.970 214.400,200.831 214.400 C 151.310 214.400,153.982 214.167,151.302 218.726 L 150.200 220.600 150.092 270.700 L 149.985 320.800 127.792 320.800 L 105.600 320.800 105.600 196.467 C 105.600 128.083,105.720 72.013,105.867 71.867 C 106.243 71.490,148.894 71.545,149.489 71.923 " stroke="none" fill="#fbfbfb" fill-rule="evenodd"></path><path id="path1" d="M0.000 200.000 L 0.000 400.000 200.000 400.000 L 400.000 400.000 400.000 200.000 L 400.000 0.000 200.000 0.000 L 0.000 0.000 0.000 200.000 M161.400 56.064 C 162.747 56.810,164.324 58.414,165.448 60.182 C 166.171 61.318,166.208 63.299,166.400 110.982 L 166.600 160.600 200.700 160.702 L 234.800 160.804 234.800 111.862 C 234.800 76.337,234.925 62.547,235.255 61.560 C 235.948 59.490,237.427 57.735,239.514 56.509 L 241.400 55.400 273.600 55.400 C 309.542 55.400,306.690 55.173,309.683 58.267 C 312.653 61.337,312.400 48.486,312.400 196.379 C 312.400 343.436,312.616 331.597,309.882 334.398 C 307.011 337.340,308.827 337.200,273.416 337.200 C 238.572 337.200,240.277 337.318,237.644 334.732 C 234.584 331.726,234.800 335.837,234.800 280.565 L 234.800 231.196 200.700 231.298 L 166.600 231.400 166.400 281.400 C 166.181 336.110,166.350 332.457,163.938 334.655 C 160.984 337.347,163.083 337.200,127.628 337.200 C 90.467 337.200,92.522 337.476,90.020 332.154 L 89.200 330.409 89.200 196.188 C 89.200 64.900,89.217 61.936,89.963 60.484 C 91.126 58.223,93.959 55.889,96.029 55.485 C 99.134 54.879,160.237 55.421,161.400 56.064 M106.000 196.400 L 106.000 320.400 127.800 320.400 L 149.600 320.400 149.602 270.900 C 149.604 240.018,149.751 220.873,149.994 220.000 C 150.549 218.006,152.481 215.838,154.584 214.850 L 156.391 214.000 200.547 214.000 C 248.533 214.000,245.973 213.883,248.730 216.202 C 249.404 216.770,250.371 217.901,250.878 218.717 L 251.800 220.200 251.908 270.300 L 252.015 320.400 273.608 320.400 L 295.200 320.400 295.200 196.400 L 295.200 72.400 273.608 72.400 L 252.015 72.400 251.908 122.100 C 251.788 177.285,252.025 172.736,249.134 175.455 C 246.223 178.194,249.914 178.000,200.816 178.000 C 150.767 178.000,154.489 178.229,151.627 174.969 C 149.561 172.617,149.605 173.764,149.602 121.500 L 149.600 72.400 127.800 72.400 L 106.000 72.400 106.000 196.400 " stroke="none" fill="#044cac" fill-rule="evenodd"></path><path id="path2" d="M96.029 55.485 C 93.959 55.889,91.126 58.223,89.963 60.484 C 89.217 61.936,89.200 64.900,89.200 196.188 L 89.200 330.409 90.020 332.154 C 92.522 337.476,90.467 337.200,127.628 337.200 C 163.083 337.200,160.984 337.347,163.938 334.655 C 166.350 332.457,166.181 336.110,166.400 281.400 L 166.600 231.400 200.700 231.298 L 234.800 231.196 234.800 280.565 C 234.800 335.837,234.584 331.726,237.644 334.732 C 240.277 337.318,238.572 337.200,273.416 337.200 C 308.827 337.200,307.011 337.340,309.882 334.398 C 312.616 331.597,312.400 343.436,312.400 196.379 C 312.400 48.486,312.653 61.337,309.683 58.267 C 306.690 55.173,309.542 55.400,273.600 55.400 L 241.400 55.400 239.514 56.509 C 237.427 57.735,235.948 59.490,235.255 61.560 C 234.925 62.547,234.800 76.337,234.800 111.862 L 234.800 160.804 200.700 160.702 L 166.600 160.600 166.400 110.982 C 166.178 55.856,166.438 60.887,163.648 57.864 C 161.235 55.250,163.396 55.405,128.600 55.348 C 111.220 55.319,96.563 55.380,96.029 55.485 M161.374 56.907 C 162.240 57.398,163.590 58.694,164.374 59.787 L 165.800 61.774 166.000 111.587 L 166.200 161.400 200.700 161.502 C 219.675 161.558,235.242 161.558,235.294 161.502 C 235.346 161.446,235.481 138.782,235.594 111.137 L 235.800 60.874 237.031 59.353 C 237.708 58.516,239.058 57.425,240.031 56.927 L 241.800 56.023 273.451 56.011 C 300.363 56.002,305.312 56.088,306.505 56.586 C 308.286 57.330,311.023 60.417,311.350 62.049 C 311.684 63.722,311.664 328.558,311.329 330.585 C 310.961 332.815,308.049 335.691,305.512 336.330 C 302.406 337.112,243.975 336.987,241.300 336.193 C 238.936 335.491,236.265 332.823,235.850 330.751 C 235.713 330.063,235.597 307.428,235.594 280.450 C 235.591 253.473,235.444 231.174,235.269 230.898 C 235.016 230.500,227.811 230.417,200.575 230.498 L 166.200 230.600 166.000 280.800 L 165.800 331.000 164.600 332.800 C 163.800 334.000,162.733 334.933,161.400 335.600 L 159.400 336.600 128.800 336.725 C 106.620 336.816,97.608 336.722,96.049 336.385 C 93.243 335.778,90.828 333.468,90.100 330.694 C 89.417 328.093,89.366 64.661,90.048 62.200 C 90.660 59.991,91.804 58.507,93.939 57.152 L 95.757 56.000 127.778 56.007 L 159.800 56.013 161.374 56.907 M105.867 71.867 C 105.720 72.013,105.600 128.083,105.600 196.467 L 105.600 320.800 127.792 320.800 L 149.985 320.800 150.092 270.700 L 150.200 220.600 151.302 218.726 C 153.982 214.167,151.310 214.400,200.831 214.400 C 249.970 214.400,247.137 214.150,250.048 218.739 L 251.200 220.557 251.200 270.678 L 251.200 320.800 273.600 320.800 L 296.000 320.800 296.000 196.443 C 296.000 83.414,295.942 72.063,295.367 71.843 C 294.541 71.526,252.659 71.526,251.833 71.843 C 251.260 72.062,251.200 76.833,251.200 121.764 L 251.200 171.443 250.048 173.261 C 247.137 177.851,250.030 177.595,200.931 177.598 C 155.282 177.600,155.568 177.613,153.036 175.525 C 149.954 172.985,150.213 177.696,150.089 122.017 C 150.003 83.299,149.870 72.165,149.489 71.923 C 148.894 71.545,106.243 71.490,105.867 71.867 M149.602 121.500 C 149.605 173.764,149.561 172.617,151.627 174.969 C 154.489 178.229,150.767 178.000,200.816 178.000 C 249.914 178.000,246.223 178.194,249.134 175.455 C 252.025 172.736,251.788 177.285,251.908 122.100 L 252.015 72.400 273.608 72.400 L 295.200 72.400 295.200 196.400 L 295.200 320.400 273.608 320.400 L 252.015 320.400 251.908 270.300 L 251.800 220.200 250.878 218.717 C 250.371 217.901,249.404 216.770,248.730 216.202 C 245.973 213.883,248.533 214.000,200.547 214.000 L 156.391 214.000 154.584 214.850 C 152.481 215.838,150.549 218.006,149.994 220.000 C 149.751 220.873,149.604 240.018,149.602 270.900 L 149.600 320.400 127.800 320.400 L 106.000 320.400 106.000 196.400 L 106.000 72.400 127.800 72.400 L 149.600 72.400 149.602 121.500 " stroke="none" fill="#3c74c4" fill-rule="evenodd"></path></g></svg>